<svg xmlns="http://www.w3.org/2000/svg" xmlns:xlink="http://www.w3.org/1999/xlink" version="1.1" x="0px" y="0px" viewBox="0 0 100.219 103.643" enable-background="new 0 0 100.219 103.643" xml:space="preserve" style="fill: rgb(0, 0, 0);">
<g id="__id101_sruktbim586">
	<path d="M96.364,0l-4.5,3.078c-23.531,16.09-47.627,49.4-59.648,76.482c-1.857-2.598-2.418-3.459-4.217-6.348   c-7.35-9.922-16.668-18.438-21.09-21.584L0,54.515l0.219,0.41c4.77,5.219,13.141,16.801,25.756,42.324   c0.773,1.102,1.598,2.184,2.537,3.193c2.469,2.643,5,3.199,6.689,3.199c0.002,0,0.002,0,0.002,0c4.816,0,7.656-3.801,9.611-8.25   c12.635-46.875,42.492-79.145,55.404-90.197L96.364,0z" style="fill: rgb(217, 190, 104);"></path>
</g>
</svg>