<svg xmlns="http://www.w3.org/2000/svg" xmlns:xlink="http://www.w3.org/1999/xlink" preserveAspectRatio="xMidYMid meet" version="1.0" viewBox="0.0 0.0 398.4 398.4" zoomAndPan="magnify" style="fill: rgb(0, 0, 0);"><g><g id="__id169_sdu7xec96b" style="fill: rgb(106, 194, 89);"><path d="M199.22,398.403C89.37,398.403,0,309.048,0,199.215C0,89.366,89.37,0,199.22,0 c109.841,0,199.194,89.366,199.194,199.215C398.415,309.048,309.061,398.403,199.22,398.403z M199.22,19.727 c-98.973,0-179.494,80.517-179.494,179.489c0,98.955,80.521,179.467,179.494,179.467c98.963,0,179.474-80.512,179.474-179.467 C378.694,100.244,298.183,19.727,199.22,19.727z" style="fill: inherit;"></path><path d="M275.929,81.58c-46.22,49.641-92.436,99.282-138.649,148.924c4.358,0,8.716,0,13.074,0 c-13.426-12.821-26.854-25.641-40.283-38.458c-3.492-3.335-9.656-3.816-13.074,0c-10.159,11.334-20.315,22.669-30.471,34.004 c-3.299,3.684-3.793,9.457,0,13.074c24.205,23.104,48.409,46.207,72.613,69.31c3.542,3.383,9.584,3.751,13.074,0 C208.6,247.872,264.985,187.306,321.371,126.74c3.418-3.672,3.671-9.433,0-13.075c-10.789-10.697-21.58-21.391-32.367-32.085 c-8.477-8.4-21.551,4.671-13.074,13.075c10.787,10.696,21.579,21.391,32.366,32.084c0-4.359,0-8.717,0-13.075 c-56.385,60.563-112.771,121.131-169.156,181.695c4.358,0,8.716,0,13.074,0c-24.205-23.104-48.409-46.207-72.614-69.31 c0,4.358,0,8.716,0,13.074c10.159-11.335,20.316-22.67,30.471-34.004c-4.358,0-8.716,0-13.074,0 c13.426,12.821,26.854,25.637,40.283,38.459c3.542,3.383,9.582,3.75,13.074,0c46.219-49.641,92.43-99.281,138.65-148.924 C297.118,85.942,284.067,72.834,275.929,81.58z" style="fill: inherit;"></path></g></g></svg>